<mxfile host="app.diagrams.net" agent="Mozilla/5.0 (Windows NT 10.0; Win64; x64) AppleWebKit/537.36 (KHTML, like Gecko) Chrome/127.0.0.0 Safari/537.36" version="24.7.4">
  <diagram name="Page-1" id="Px-rGjE4d4ECfZvoA9eH">
    <mxGraphModel dx="1050" dy="522" grid="1" gridSize="10" guides="1" tooltips="1" connect="1" arrows="1" fold="1" page="1" pageScale="1" pageWidth="1100" pageHeight="850" math="0" shadow="0">
      <root>
        <mxCell id="0" />
        <mxCell id="1" parent="0" />
        <mxCell id="f3vR9Rkkpv1uvMwhN0g--1" value="Product Listing Sequence" style="swimlane;whiteSpace=wrap;html=1;" vertex="1" parent="1">
          <mxGeometry x="430" y="160" width="720" height="480" as="geometry" />
        </mxCell>
        <mxCell id="f3vR9Rkkpv1uvMwhN0g--2" value="&lt;b&gt;User&lt;/b&gt;" style="rounded=0;whiteSpace=wrap;html=1;" vertex="1" parent="f3vR9Rkkpv1uvMwhN0g--1">
          <mxGeometry x="30" y="60" width="120" height="60" as="geometry" />
        </mxCell>
        <mxCell id="f3vR9Rkkpv1uvMwhN0g--3" value="&lt;b&gt;Web Portal&lt;/b&gt;" style="rounded=0;whiteSpace=wrap;html=1;" vertex="1" parent="f3vR9Rkkpv1uvMwhN0g--1">
          <mxGeometry x="270" y="70" width="120" height="60" as="geometry" />
        </mxCell>
        <mxCell id="f3vR9Rkkpv1uvMwhN0g--4" value="DB" style="rounded=0;whiteSpace=wrap;html=1;" vertex="1" parent="f3vR9Rkkpv1uvMwhN0g--1">
          <mxGeometry x="540" y="70" width="120" height="60" as="geometry" />
        </mxCell>
        <mxCell id="f3vR9Rkkpv1uvMwhN0g--5" value="" style="endArrow=none;dashed=1;html=1;dashPattern=1 3;strokeWidth=2;rounded=0;entryX=0.5;entryY=1;entryDx=0;entryDy=0;" edge="1" parent="f3vR9Rkkpv1uvMwhN0g--1">
          <mxGeometry width="50" height="50" relative="1" as="geometry">
            <mxPoint x="330" y="481" as="sourcePoint" />
            <mxPoint x="329.5" y="130" as="targetPoint" />
            <Array as="points">
              <mxPoint x="329.5" y="280" />
            </Array>
          </mxGeometry>
        </mxCell>
        <mxCell id="f3vR9Rkkpv1uvMwhN0g--6" value="" style="rounded=1;whiteSpace=wrap;html=1;direction=south;" vertex="1" parent="f3vR9Rkkpv1uvMwhN0g--1">
          <mxGeometry x="320" y="186" width="20" height="60" as="geometry" />
        </mxCell>
        <mxCell id="f3vR9Rkkpv1uvMwhN0g--7" value="" style="rounded=1;whiteSpace=wrap;html=1;direction=south;" vertex="1" parent="f3vR9Rkkpv1uvMwhN0g--1">
          <mxGeometry x="320" y="316" width="20" height="60" as="geometry" />
        </mxCell>
        <mxCell id="f3vR9Rkkpv1uvMwhN0g--8" value="" style="endArrow=none;dashed=1;html=1;dashPattern=1 3;strokeWidth=2;rounded=0;entryX=0.5;entryY=1;entryDx=0;entryDy=0;" edge="1" parent="f3vR9Rkkpv1uvMwhN0g--1">
          <mxGeometry width="50" height="50" relative="1" as="geometry">
            <mxPoint x="600" y="481" as="sourcePoint" />
            <mxPoint x="599.5" y="130" as="targetPoint" />
            <Array as="points" />
          </mxGeometry>
        </mxCell>
        <mxCell id="f3vR9Rkkpv1uvMwhN0g--9" value="" style="endArrow=none;dashed=1;html=1;dashPattern=1 3;strokeWidth=2;rounded=0;entryX=0.5;entryY=1;entryDx=0;entryDy=0;" edge="1" parent="f3vR9Rkkpv1uvMwhN0g--1">
          <mxGeometry width="50" height="50" relative="1" as="geometry">
            <mxPoint x="80" y="481" as="sourcePoint" />
            <mxPoint x="80" y="120" as="targetPoint" />
            <Array as="points">
              <mxPoint x="80" y="270" />
            </Array>
          </mxGeometry>
        </mxCell>
        <mxCell id="f3vR9Rkkpv1uvMwhN0g--10" value="" style="rounded=1;whiteSpace=wrap;html=1;direction=south;" vertex="1" parent="f3vR9Rkkpv1uvMwhN0g--1">
          <mxGeometry x="590" y="366" width="20" height="60" as="geometry" />
        </mxCell>
        <mxCell id="f3vR9Rkkpv1uvMwhN0g--11" value="" style="endArrow=classic;html=1;rounded=0;entryX=0.63;entryY=1.1;entryDx=0;entryDy=0;entryPerimeter=0;" edge="1" parent="f3vR9Rkkpv1uvMwhN0g--1" target="f3vR9Rkkpv1uvMwhN0g--6">
          <mxGeometry width="50" height="50" relative="1" as="geometry">
            <mxPoint x="80" y="225" as="sourcePoint" />
            <mxPoint x="200" y="191" as="targetPoint" />
          </mxGeometry>
        </mxCell>
        <mxCell id="f3vR9Rkkpv1uvMwhN0g--12" value="" style="endArrow=classic;html=1;rounded=0;entryX=0.63;entryY=1.1;entryDx=0;entryDy=0;entryPerimeter=0;" edge="1" parent="f3vR9Rkkpv1uvMwhN0g--1">
          <mxGeometry width="50" height="50" relative="1" as="geometry">
            <mxPoint x="330" y="255" as="sourcePoint" />
            <mxPoint x="590" y="255" as="targetPoint" />
          </mxGeometry>
        </mxCell>
        <mxCell id="f3vR9Rkkpv1uvMwhN0g--13" value="" style="rounded=1;whiteSpace=wrap;html=1;direction=south;arcSize=0;" vertex="1" parent="f3vR9Rkkpv1uvMwhN0g--1">
          <mxGeometry x="590" y="238" width="20" height="60" as="geometry" />
        </mxCell>
        <mxCell id="f3vR9Rkkpv1uvMwhN0g--14" value="" style="endArrow=none;dashed=1;html=1;rounded=0;entryX=0.627;entryY=1.08;entryDx=0;entryDy=0;entryPerimeter=0;" edge="1" parent="f3vR9Rkkpv1uvMwhN0g--1" source="f3vR9Rkkpv1uvMwhN0g--15">
          <mxGeometry width="50" height="50" relative="1" as="geometry">
            <mxPoint x="331.6" y="290" as="sourcePoint" />
            <mxPoint x="590.0000000000001" y="290.6199999999999" as="targetPoint" />
          </mxGeometry>
        </mxCell>
        <mxCell id="f3vR9Rkkpv1uvMwhN0g--15" value="" style="html=1;shadow=0;dashed=0;align=center;verticalAlign=middle;shape=mxgraph.arrows2.arrow;dy=0.6;dx=40;flipH=1;notch=0;" vertex="1" parent="f3vR9Rkkpv1uvMwhN0g--1">
          <mxGeometry x="330" y="287" width="20" height="11" as="geometry" />
        </mxCell>
        <mxCell id="f3vR9Rkkpv1uvMwhN0g--17" value="" style="endArrow=classic;html=1;rounded=0;entryX=0.63;entryY=1.1;entryDx=0;entryDy=0;entryPerimeter=0;" edge="1" parent="f3vR9Rkkpv1uvMwhN0g--1">
          <mxGeometry width="50" height="50" relative="1" as="geometry">
            <mxPoint x="80" y="338" as="sourcePoint" />
            <mxPoint x="320" y="338" as="targetPoint" />
          </mxGeometry>
        </mxCell>
        <mxCell id="f3vR9Rkkpv1uvMwhN0g--18" value="" style="endArrow=none;dashed=1;html=1;rounded=0;exitX=0;exitY=0;exitDx=0;exitDy=14;exitPerimeter=0;" edge="1" parent="f3vR9Rkkpv1uvMwhN0g--1">
          <mxGeometry width="50" height="50" relative="1" as="geometry">
            <mxPoint x="95" y="421.66" as="sourcePoint" />
            <mxPoint x="330" y="420" as="targetPoint" />
          </mxGeometry>
        </mxCell>
        <mxCell id="f3vR9Rkkpv1uvMwhN0g--19" value="" style="html=1;shadow=0;dashed=0;align=center;verticalAlign=middle;shape=mxgraph.arrows2.arrow;dy=0.6;dx=40;flipH=1;notch=0;" vertex="1" parent="f3vR9Rkkpv1uvMwhN0g--1">
          <mxGeometry x="75" y="414" width="30" height="14" as="geometry" />
        </mxCell>
        <mxCell id="f3vR9Rkkpv1uvMwhN0g--20" value="&lt;b&gt;&amp;nbsp; &amp;nbsp; &amp;nbsp; &amp;nbsp; &amp;nbsp; &amp;nbsp; &amp;nbsp; &amp;nbsp; &amp;nbsp; &amp;nbsp; &amp;nbsp; &amp;nbsp; &amp;nbsp; &amp;nbsp; &amp;nbsp; Success Token&lt;/b&gt;" style="text;html=1;align=center;verticalAlign=middle;resizable=0;points=[];autosize=1;strokeColor=none;fillColor=none;" vertex="1" parent="f3vR9Rkkpv1uvMwhN0g--1">
          <mxGeometry x="280" y="268" width="210" height="30" as="geometry" />
        </mxCell>
        <mxCell id="f3vR9Rkkpv1uvMwhN0g--21" value="&lt;b&gt;Authentication&lt;/b&gt;" style="text;html=1;align=center;verticalAlign=middle;resizable=0;points=[];autosize=1;strokeColor=none;fillColor=none;" vertex="1" parent="f3vR9Rkkpv1uvMwhN0g--1">
          <mxGeometry x="380" y="230" width="110" height="30" as="geometry" />
        </mxCell>
        <mxCell id="f3vR9Rkkpv1uvMwhN0g--22" value="Enter OTP" style="text;html=1;align=center;verticalAlign=middle;resizable=0;points=[];autosize=1;strokeColor=none;fillColor=none;" vertex="1" parent="f3vR9Rkkpv1uvMwhN0g--1">
          <mxGeometry x="135" y="310" width="80" height="30" as="geometry" />
        </mxCell>
        <mxCell id="f3vR9Rkkpv1uvMwhN0g--23" value="" style="endArrow=none;dashed=1;html=1;dashPattern=1 3;strokeWidth=2;rounded=0;" edge="1" parent="f3vR9Rkkpv1uvMwhN0g--1">
          <mxGeometry width="50" height="50" relative="1" as="geometry">
            <mxPoint x="80" y="481" as="sourcePoint" />
            <mxPoint x="600" y="481" as="targetPoint" />
          </mxGeometry>
        </mxCell>
        <mxCell id="f3vR9Rkkpv1uvMwhN0g--24" value="" style="endArrow=classic;html=1;rounded=0;entryX=0.133;entryY=1.12;entryDx=0;entryDy=0;entryPerimeter=0;" edge="1" parent="f3vR9Rkkpv1uvMwhN0g--1" target="f3vR9Rkkpv1uvMwhN0g--10">
          <mxGeometry width="50" height="50" relative="1" as="geometry">
            <mxPoint x="330" y="376" as="sourcePoint" />
            <mxPoint x="590" y="381" as="targetPoint" />
          </mxGeometry>
        </mxCell>
        <mxCell id="f3vR9Rkkpv1uvMwhN0g--25" value="" style="endArrow=none;dashed=1;html=1;rounded=0;entryX=0.627;entryY=1.08;entryDx=0;entryDy=0;entryPerimeter=0;" edge="1" parent="f3vR9Rkkpv1uvMwhN0g--1">
          <mxGeometry width="50" height="50" relative="1" as="geometry">
            <mxPoint x="350" y="407.38" as="sourcePoint" />
            <mxPoint x="590.0000000000001" y="405.9999999999999" as="targetPoint" />
          </mxGeometry>
        </mxCell>
        <mxCell id="f3vR9Rkkpv1uvMwhN0g--26" value="" style="html=1;shadow=0;dashed=0;align=center;verticalAlign=middle;shape=mxgraph.arrows2.arrow;dy=0.6;dx=40;flipH=1;notch=0;" vertex="1" parent="f3vR9Rkkpv1uvMwhN0g--1">
          <mxGeometry x="330" y="400" width="30" height="14" as="geometry" />
        </mxCell>
        <mxCell id="f3vR9Rkkpv1uvMwhN0g--27" value="Display success or failure message" style="text;html=1;align=center;verticalAlign=middle;resizable=0;points=[];autosize=1;strokeColor=none;fillColor=none;" vertex="1" parent="f3vR9Rkkpv1uvMwhN0g--1">
          <mxGeometry x="110" y="392" width="210" height="30" as="geometry" />
        </mxCell>
        <mxCell id="f3vR9Rkkpv1uvMwhN0g--28" value="Verify OTP" style="text;html=1;align=center;verticalAlign=middle;resizable=0;points=[];autosize=1;strokeColor=none;fillColor=none;" vertex="1" parent="1">
          <mxGeometry x="830" y="508" width="80" height="30" as="geometry" />
        </mxCell>
        <mxCell id="f3vR9Rkkpv1uvMwhN0g--29" value="Success Token/ null" style="text;html=1;align=center;verticalAlign=middle;resizable=0;points=[];autosize=1;strokeColor=none;fillColor=none;" vertex="1" parent="1">
          <mxGeometry x="825" y="538" width="130" height="30" as="geometry" />
        </mxCell>
      </root>
    </mxGraphModel>
  </diagram>
</mxfile>
